<svg version="1.1" viewBox="0.0 0.0 100.0 100.0" fill="none" stroke="none" stroke-linecap="square" stroke-miterlimit="10" xmlns:xlink="http://www.w3.org/1999/xlink" xmlns="http://www.w3.org/2000/svg"><clipPath id="p.0"><path d="m0 0l100.0 0l0 100.0l-100.0 0l0 -100.0z" clip-rule="nonzero"/></clipPath><g clip-path="url(#p.0)"><path fill="#000000" fill-opacity="0.0" d="m0 0l100.0 0l0 100.0l-100.0 0z" fill-rule="evenodd"/><g filter="url(#shadowFilter-p.1)"><use xlink:href="#p.1" transform="matrix(1.0 0.0 0.0 1.0 0.0 2.0000000000000093)"/></g><defs><filter id="shadowFilter-p.1" filterUnits="userSpaceOnUse"><feGaussianBlur in="SourceAlpha" stdDeviation="2.0" result="blur"/><feComponentTransfer in="blur" color-interpolation-filters="sRGB"><feFuncR type="linear" slope="0" intercept="0.0"/><feFuncG type="linear" slope="0" intercept="0.0"/><feFuncB type="linear" slope="0" intercept="0.0"/><feFuncA type="linear" slope="0.5" intercept="0"/></feComponentTransfer></filter></defs><g id="p.1"><path fill="#000000" fill-opacity="0.0" d="m37.72618 20.54922c-17.347708 0 -27.291508 35.824654 -16.456694 49.372704c11.425009 14.286049 41.91716 14.498192 54.855644 1.5669327c8.899567 -8.894596 8.763382 -26.36404 3.1338577 -37.6168c-7.428726 -14.849163 -34.77042 -20.177658 -48.587925 -10.971128" fill-rule="evenodd"/><path stroke="#ff0000" stroke-width="8.0" stroke-linejoin="round" stroke-linecap="butt" d="m37.72618 20.54922c-17.347708 0 -27.291508 35.824654 -16.456694 49.372704c11.425009 14.286049 41.91716 14.498192 54.855644 1.5669327c8.899567 -8.894596 8.763382 -26.36404 3.1338577 -37.6168c-7.428726 -14.849163 -34.77042 -20.177658 -48.587925 -10.971128" fill-rule="evenodd"/></g><path fill="#000000" fill-opacity="0.0" d="m33.816273 44.212597l13.102364 4.818901" fill-rule="evenodd"/><path stroke="#ff0000" stroke-width="4.0" stroke-linejoin="round" stroke-linecap="butt" d="m33.816273 44.212597l13.102364 4.818901" fill-rule="evenodd"/><path fill="#000000" fill-opacity="0.0" d="m58.664043 49.732285l12.409451 -6.89764" fill-rule="evenodd"/><path stroke="#ff0000" stroke-width="4.0" stroke-linejoin="round" stroke-linecap="butt" d="m58.664043 49.732285l12.409451 -6.89764" fill-rule="evenodd"/><path fill="#000000" fill-opacity="0.0" d="m40.02887 71.1296c3.9432106 -7.886421 17.860912 -6.2397156 26.225723 -3.4514465" fill-rule="evenodd"/><path stroke="#ff0000" stroke-width="4.0" stroke-linejoin="round" stroke-linecap="butt" d="m40.02887 71.1296c3.9432106 -7.886421 17.860912 -6.2397156 26.225723 -3.4514465" fill-rule="evenodd"/></g></svg>