<svg version="1.1" viewBox="0.0 0.0 100.0 100.0" fill="none" stroke="none" stroke-linecap="square" stroke-miterlimit="10" xmlns:xlink="http://www.w3.org/1999/xlink" xmlns="http://www.w3.org/2000/svg"><clipPath id="p.0"><path d="m0 0l100.0 0l0 100.0l-100.0 0l0 -100.0z" clip-rule="nonzero"/></clipPath><g clip-path="url(#p.0)"><path fill="#000000" fill-opacity="0.0" d="m0 0l100.0 0l0 100.0l-100.0 0z" fill-rule="evenodd"/><path fill="#000000" fill-opacity="0.0" d="m37.011547 20.16653c-18.357344 0 -28.879871 37.755596 -17.414473 52.033894c12.089943 15.056061 44.356743 15.27964 58.04824 1.6513824c9.417519 -9.374016 9.273407 -27.785057 3.316246 -39.64434c-7.8610764 -15.649532 -36.79406 -21.265232 -51.41574 -11.562473" fill-rule="evenodd"/><path stroke="#6aa84f" stroke-width="4.0" stroke-linejoin="round" stroke-linecap="butt" d="m37.011547 20.16653c-18.357344 0 -28.879871 37.755596 -17.414473 52.033894c12.089943 15.056061 44.356743 15.27964 58.04824 1.6513824c9.417519 -9.374016 9.273407 -27.785057 3.316246 -39.64434c-7.8610764 -15.649532 -36.79406 -21.265232 -51.41574 -11.562473" fill-rule="evenodd"/><path fill="#000000" fill-opacity="0.0" d="m61.460083 58.366543l0 0c1.9490585 5.941311 -0.44797134 12.1376915 -5.8216934 15.049213c-5.373726 2.911522 -12.355095 1.7964249 -16.955734 -2.7082443c-4.600643 -4.504677 -5.6484604 -11.251278 -2.5448494 -16.385555z" fill-rule="evenodd"/><path stroke="#6aa84f" stroke-width="3.0" stroke-linejoin="round" stroke-linecap="butt" d="m61.460083 58.366543l0 0c1.9490585 5.941311 -0.44797134 12.1376915 -5.8216934 15.049213c-5.373726 2.911522 -12.355095 1.7964249 -16.955734 -2.7082443c-4.600643 -4.504677 -5.6484604 -11.251278 -2.5448494 -16.385555z" fill-rule="evenodd"/><path fill="#000000" fill-opacity="0.0" d="m28.481627 43.74656c1.545517 -1.4954681 6.652834 -9.004414 9.273092 -8.972813c2.6202583 0.031600952 5.3737106 7.6353493 6.448452 9.162418" fill-rule="evenodd"/><path stroke="#6aa84f" stroke-width="3.0" stroke-linejoin="round" stroke-linecap="butt" d="m28.481627 43.74656c1.545517 -1.4954681 6.652834 -9.004414 9.273092 -8.972813c2.6202583 0.031600952 5.3737106 7.6353493 6.448452 9.162418" fill-rule="evenodd"/><path fill="#000000" fill-opacity="0.0" d="m59.66273 46.35286c1.5455132 -1.495472 6.652836 -9.004417 9.27309 -8.972816c2.6202545 0.031600952 5.3737106 7.6353493 6.448448 9.162422" fill-rule="evenodd"/><path stroke="#6aa84f" stroke-width="3.0" stroke-linejoin="round" stroke-linecap="butt" d="m59.66273 46.35286c1.5455132 -1.495472 6.652836 -9.004417 9.27309 -8.972816c2.6202545 0.031600952 5.3737106 7.6353493 6.448448 9.162422" fill-rule="evenodd"/></g></svg>