<svg version="1.1" viewBox="0.0 0.0 100.0 100.0" fill="none" stroke="none" stroke-linecap="square" stroke-miterlimit="10" xmlns:xlink="http://www.w3.org/1999/xlink" xmlns="http://www.w3.org/2000/svg"><clipPath id="p.0"><path d="m0 0l100.0 0l0 100.0l-100.0 0l0 -100.0z" clip-rule="nonzero"/></clipPath><g clip-path="url(#p.0)"><path fill="#000000" fill-opacity="0.0" d="m0 0l100.0 0l0 100.0l-100.0 0z" fill-rule="evenodd"/><path fill="#000000" fill-opacity="0.0" d="m35.65138 19.562344c-17.347708 0 -27.291508 35.82465 -16.456694 49.3727c11.425009 14.286049 41.91716 14.498192 54.855644 1.5669327c8.899559 -8.894596 8.763374 -26.36404 3.1338577 -37.6168c-7.428726 -14.849161 -34.770424 -20.177658 -48.58793 -10.971128" fill-rule="evenodd"/><path stroke="#ffd966" stroke-width="8.0" stroke-linejoin="round" stroke-linecap="butt" d="m35.65138 19.562344c-17.347708 0 -27.291508 35.82465 -16.456694 49.3727c11.425009 14.286049 41.91716 14.498192 54.855644 1.5669327c8.899559 -8.894596 8.763374 -26.36404 3.1338577 -37.6168c-7.428726 -14.849161 -34.770424 -20.177658 -48.58793 -10.971128" fill-rule="evenodd"/><path fill="#ffd966" d="m33.024933 40.32021l0 0c0 -2.2874146 1.8543167 -4.1417313 4.141735 -4.1417313l0 0c1.0984535 0 2.1519203 0.4363594 2.928646 1.2130852c0.77672577 0.77672577 1.2130852 1.8301926 1.2130852 2.928646l0 0c0 2.2874146 -1.8543167 4.1417313 -4.1417313 4.1417313l0 0c-2.2874184 0 -4.141735 -1.8543167 -4.141735 -4.1417313z" fill-rule="evenodd"/><path fill="#ffd966" d="m54.54462 40.32021l0 0c0 -2.2874146 1.8543167 -4.1417313 4.1417313 -4.1417313l0 0c1.0984573 0 2.1519203 0.4363594 2.928646 1.2130852c0.77672577 0.77672577 1.2130852 1.8301926 1.2130852 2.928646l0 0c0 2.2874146 -1.8543167 4.1417313 -4.1417313 4.1417313l0 0c-2.2874146 0 -4.1417313 -1.8543167 -4.1417313 -4.1417313z" fill-rule="evenodd"/><path fill="#000000" fill-opacity="0.0" d="m28.602362 61.38845c7.1377964 10.727089 31.501081 11.41111 38.648293 0.69028854" fill-rule="evenodd"/><path stroke="#ffd966" stroke-width="4.0" stroke-linejoin="round" stroke-linecap="butt" d="m28.602362 61.38845c7.1377964 10.727089 31.501081 11.41111 38.648293 0.69028854" fill-rule="evenodd"/></g></svg>