<svg version="1.1" viewBox="0.0 0.0 100.0 100.0" fill="none" stroke="none" stroke-linecap="square" stroke-miterlimit="10" xmlns:xlink="http://www.w3.org/1999/xlink" xmlns="http://www.w3.org/2000/svg"><clipPath id="p.0"><path d="m0 0l100.0 0l0 100.0l-100.0 0l0 -100.0z" clip-rule="nonzero"/></clipPath><g clip-path="url(#p.0)"><path fill="#000000" fill-opacity="0.0" d="m0 0l100.0 0l0 100.0l-100.0 0z" fill-rule="evenodd"/><path fill="#000000" fill-opacity="0.0" d="m33.846138 17.21401c-18.041615 0 -28.383167 37.214645 -17.114962 51.28836c11.8820095 14.840347 43.59385 15.060722 57.049866 1.6277313c9.255547 -9.239712 9.1139145 -27.386967 3.2592163 -39.076332c-7.725876 -15.42531 -36.16124 -20.960552 -50.531445 -11.396809" fill-rule="evenodd"/><path stroke="#ffd966" stroke-width="4.0" stroke-linejoin="round" stroke-linecap="butt" d="m33.846138 17.21401c-18.041615 0 -28.383167 37.214645 -17.114962 51.28836c11.8820095 14.840347 43.59385 15.060722 57.049866 1.6277313c9.255547 -9.239712 9.1139145 -27.386967 3.2592163 -39.076332c-7.725876 -15.42531 -36.16124 -20.960552 -50.531445 -11.396809" fill-rule="evenodd"/><path fill="#ffd966" d="m31.114637 38.777283l0 0c0 -2.3761673 1.9284878 -4.302433 4.3074017 -4.302433l0 0c1.1423912 0 2.237999 0.45329285 3.0457916 1.2601547c0.8077965 0.8068619 1.2616081 1.9012032 1.2616081 3.0422783l0 0c0 2.3761673 -1.9284897 4.302433 -4.3073997 4.302433l0 0c-2.3789139 0 -4.3074017 -1.9262657 -4.3074017 -4.302433z" fill-rule="evenodd"/><path fill="#ffd966" d="m53.49511 38.777283l0 0c0 -2.3761673 1.9284897 -4.302433 4.3073997 -4.302433l0 0c1.142395 0 2.237999 0.45329285 3.0457954 1.2601547c0.80779266 0.8068619 1.2616081 1.9012032 1.2616081 3.0422783l0 0c0 2.3761673 -1.9284897 4.302433 -4.3074036 4.302433l0 0c-2.37891 0 -4.3073997 -1.9262657 -4.3073997 -4.302433z" fill-rule="evenodd"/><path fill="#000000" fill-opacity="0.0" d="m26.515162 60.66297c7.4233074 11.143303 32.761124 11.853859 40.19423 0.71707153" fill-rule="evenodd"/><path stroke="#ffd966" stroke-width="4.0" stroke-linejoin="round" stroke-linecap="butt" d="m26.515162 60.66297c7.4233074 11.143303 32.761124 11.853859 40.19423 0.71707153" fill-rule="evenodd"/></g></svg>