<svg version="1.1" viewBox="0.0 0.0 100.0 100.0" fill="none" stroke="none" stroke-linecap="square" stroke-miterlimit="10" xmlns:xlink="http://www.w3.org/1999/xlink" xmlns="http://www.w3.org/2000/svg"><clipPath id="p.0"><path d="m0 0l100.0 0l0 100.0l-100.0 0l0 -100.0z" clip-rule="nonzero"/></clipPath><g clip-path="url(#p.0)"><path fill="#000000" fill-opacity="0.0" d="m0 0l100.0 0l0 100.0l-100.0 0z" fill-rule="evenodd"/><path fill="#000000" fill-opacity="0.0" d="m40.665813 21.286753c-17.347708 0 -27.291506 35.824646 -16.456694 49.372704c11.425009 14.286049 41.91716 14.498192 54.855644 1.5669327c8.899559 -8.8946 8.763374 -26.36404 3.1338577 -37.6168c-7.428726 -14.849163 -34.770424 -20.177658 -48.58793 -10.97113" fill-rule="evenodd"/><path stroke="#3c78d8" stroke-width="8.0" stroke-linejoin="round" stroke-linecap="butt" d="m40.665813 21.286753c-17.347708 0 -27.291506 35.824646 -16.456694 49.372704c11.425009 14.286049 41.91716 14.498192 54.855644 1.5669327c8.899559 -8.8946 8.763374 -26.36404 3.1338577 -37.6168c-7.428726 -14.849163 -34.770424 -20.177658 -48.58793 -10.97113" fill-rule="evenodd"/><path fill="#3c78d8" d="m38.03937 50.362206l0 0c0 -2.2874146 1.8543167 -4.1417313 4.1417313 -4.1417313l0 0c1.0984535 0 2.1519203 0.4363594 2.928646 1.2130852c0.77672577 0.77672195 1.2130852 1.8301888 1.2130852 2.928646l0 0c0 2.2874146 -1.8543167 4.1417313 -4.1417313 4.1417313l0 0c-2.2874146 0 -4.1417313 -1.8543167 -4.1417313 -4.1417313z" fill-rule="evenodd"/><path fill="#3c78d8" d="m59.559055 50.362206l0 0c0 -2.2874146 1.8543167 -4.1417313 4.1417313 -4.1417313l0 0c1.0984535 0 2.1519203 0.4363594 2.928646 1.2130852c0.77672577 0.77672195 1.213089 1.8301888 1.213089 2.928646l0 0c0 2.2874146 -1.8543167 4.1417313 -4.141735 4.1417313l0 0c-2.2874146 0 -4.1417313 -1.8543167 -4.1417313 -4.1417313z" fill-rule="evenodd"/><path fill="#000000" fill-opacity="0.0" d="m42.98037 72.68357c4.5655937 -7.7273865 13.397205 -13.678917 16.440933 -2.0886765" fill-rule="evenodd"/><path stroke="#3c78d8" stroke-width="4.0" stroke-linejoin="round" stroke-linecap="butt" d="m42.98037 72.68357c4.5655937 -7.7273865 13.397205 -13.678917 16.440933 -2.0886765" fill-rule="evenodd"/></g></svg>