<svg version="1.1" viewBox="0.0 0.0 100.0 100.0" fill="none" stroke="none" stroke-linecap="square" stroke-miterlimit="10" xmlns:xlink="http://www.w3.org/1999/xlink" xmlns="http://www.w3.org/2000/svg"><clipPath id="p.0"><path d="m0 0l100.0 0l0 100.0l-100.0 0l0 -100.0z" clip-rule="nonzero"/></clipPath><g clip-path="url(#p.0)"><path fill="#000000" fill-opacity="0.0" d="m0 0l100.0 0l0 100.0l-100.0 0z" fill-rule="evenodd"/><path fill="#000000" fill-opacity="0.0" d="m39.225983 19.312729c-17.888954 0 -28.143002 36.98895 -16.97014 50.977318c11.781469 14.750336 43.224976 14.969383 56.56714 1.6178513c9.177231 -9.18367 9.036797 -27.220871 3.231636 -38.839344c-7.660507 -15.3317585 -35.855263 -20.833431 -50.103874 -11.32769" fill-rule="evenodd"/><path stroke="#3c78d8" stroke-width="4.0" stroke-linejoin="round" stroke-linecap="butt" d="m39.225983 19.312729c-17.888954 0 -28.143002 36.98895 -16.97014 50.977318c11.781469 14.750336 43.224976 14.969383 56.56714 1.6178513c9.177231 -9.18367 9.036797 -27.220871 3.231636 -38.839344c-7.660507 -15.3317585 -35.855263 -20.833431 -50.103874 -11.32769" fill-rule="evenodd"/><path fill="#3c78d8" d="m36.517593 49.333134l0 0c0 -2.3617592 1.9121742 -4.2763405 4.270954 -4.2763405l0 0c1.1327286 0 2.2190628 0.45054245 3.0200233 1.2525101c0.8009567 0.80197144 1.2509346 1.8896751 1.2509346 3.0238304l0 0c0 2.3617554 -1.9121742 4.2763367 -4.270958 4.2763367l0 0c-2.35878 0 -4.270954 -1.9145813 -4.270954 -4.2763367z" fill-rule="evenodd"/><path fill="#3c78d8" d="m58.708694 49.333134l0 0c0 -2.3617592 1.9121704 -4.2763405 4.270954 -4.2763405l0 0c1.1327248 0 2.219059 0.45054245 3.0200233 1.2525101c0.8009567 0.80197144 1.2509308 1.8896751 1.2509308 3.0238304l0 0c0 2.3617554 -1.9121704 4.2763367 -4.270954 4.2763367l0 0c-2.3587837 0 -4.270954 -1.9145813 -4.270954 -4.2763367z" fill-rule="evenodd"/><path fill="#000000" fill-opacity="0.0" d="m41.612755 72.379944c4.7080383 -7.9785233 13.815197 -14.123482 16.953888 -2.1565628" fill-rule="evenodd"/><path stroke="#3c78d8" stroke-width="4.0" stroke-linejoin="round" stroke-linecap="butt" d="m41.612755 72.379944c4.7080383 -7.9785233 13.815197 -14.123482 16.953888 -2.1565628" fill-rule="evenodd"/></g></svg>