<svg version="1.1" viewBox="0.0 0.0 100.0 100.0" fill="none" stroke="none" stroke-linecap="square" stroke-miterlimit="10" xmlns:xlink="http://www.w3.org/1999/xlink" xmlns="http://www.w3.org/2000/svg"><clipPath id="p.0"><path d="m0 0l100.0 0l0 100.0l-100.0 0l0 -100.0z" clip-rule="nonzero"/></clipPath><g clip-path="url(#p.0)"><path fill="#000000" fill-opacity="0.0" d="m0 0l100.0 0l0 100.0l-100.0 0z" fill-rule="evenodd"/><path fill="#000000" fill-opacity="0.0" d="m40.665813 21.286753c-17.347708 0 -27.291506 35.824646 -16.456694 49.372704c11.425009 14.286049 41.91716 14.498192 54.855644 1.5669327c8.899559 -8.8946 8.763374 -26.36404 3.1338577 -37.6168c-7.428726 -14.849163 -34.770424 -20.177658 -48.58793 -10.97113" fill-rule="evenodd"/><path stroke="#999999" stroke-width="4.0" stroke-linejoin="round" stroke-linecap="butt" d="m40.665813 21.286753c-17.347708 0 -27.291506 35.824646 -16.456694 49.372704c11.425009 14.286049 41.91716 14.498192 54.855644 1.5669327c8.899559 -8.8946 8.763374 -26.36404 3.1338577 -37.6168c-7.428726 -14.849163 -34.770424 -20.177658 -48.58793 -10.97113" fill-rule="evenodd"/><path fill="#000000" fill-opacity="0.0" d="m34.328083 23.73491l24.251968 0l0 63.02362l-24.251968 0z" fill-rule="evenodd"/><path fill="#999999" d="m51.624958 60.951157q-0.015625 -0.640625 -0.015625 -0.953125q0 -1.859375 0.53125 -3.21875q0.375 -1.015625 1.25 -2.046875q0.625 -0.765625 2.265625 -2.203125q1.640625 -1.453125 2.125 -2.3125q0.5 -0.875 0.5 -1.890625q0 -1.84375 -1.4375 -3.234375q-1.4375 -1.40625 -3.53125 -1.40625q-2.015625 0 -3.375 1.265625q-1.359375 1.265625 -1.78125 3.953125l-3.25 -0.390625q0.4375 -3.59375 2.609375 -5.5q2.171875 -1.921875 5.75 -1.921875q3.78125 0 6.03125 2.0625q2.25 2.046875 2.25 4.96875q0 1.6875 -0.796875 3.109375q-0.796875 1.421875 -3.09375 3.453125q-1.546875 1.375 -2.03125 2.03125q-0.46875 0.640625 -0.703125 1.484375q-0.21875 0.84375 -0.25 2.75l-3.046875 0zm-0.1875 6.34375l0 -3.609375l3.59375 0l0 3.609375l-3.59375 0z" fill-rule="nonzero"/></g></svg>